<svg width="24" height="24" viewBox="0 0 24 24" fill="none" xmlns="http://www.w3.org/2000/svg">
<path d="M12.0001 0.0506592C5.37268 0.0506592 0 5.42334 0 12.0507C0 17.9947 4.32626 22.9173 9.9987 23.8706V14.5543H7.10393V11.2017H9.9987V8.72966C9.9987 5.86138 11.7506 4.29833 14.3096 4.29833C15.5353 4.29833 16.5886 4.38966 16.8944 4.42989V7.42801L15.1194 7.42886C13.728 7.42886 13.4598 8.08993 13.4598 9.06034V11.2H16.7798L16.3468 14.5526H13.4598V23.9507C19.397 23.2281 24 18.1801 24 12.0473C24 5.42334 18.6273 0.0506592 12.0001 0.0506592Z" fill="#7583CA"/>
</svg>
