<svg width="24" height="24" viewBox="0 0 24 24" fill="none" xmlns="http://www.w3.org/2000/svg">
<path d="M23.52 12.2672C23.52 11.2805 23.4399 10.5605 23.2667 9.81384H12V14.2671H18.6133C18.48 15.3738 17.76 17.0405 16.16 18.1604L16.1375 18.3095L19.6998 21.0692L19.9466 21.0938C22.2133 19.0005 23.52 15.9205 23.52 12.2672Z" fill="#4285F4"/>
<path d="M12.0003 23.9997C15.2402 23.9997 17.9602 22.933 19.9469 21.093L16.1603 18.1596C15.1469 18.8663 13.7869 19.3596 12.0003 19.3596C8.82698 19.3596 6.13367 17.2664 5.17358 14.373L5.03285 14.385L1.32871 17.2517L1.28027 17.3863C3.25358 21.3063 7.30692 23.9997 12.0003 23.9997Z" fill="#34A853"/>
<path d="M5.17327 14.3733C4.91995 13.6267 4.77334 12.8266 4.77334 12C4.77334 11.1733 4.91995 10.3733 5.15995 9.62667L5.15324 9.46765L1.40268 6.55493L1.27997 6.6133C0.466671 8.23998 0 10.0667 0 12C0 13.9333 0.466671 15.7599 1.27997 17.3866L5.17327 14.3733Z" fill="#FBBC05"/>
<path d="M12.0003 4.63996C14.2536 4.63996 15.7736 5.61329 16.6403 6.42668L20.0269 3.12C17.947 1.18667 15.2402 0 12.0003 0C7.30692 0 3.25358 2.69331 1.28027 6.61327L5.16025 9.62664C6.13367 6.73332 8.82698 4.63996 12.0003 4.63996Z" fill="#EB4335"/>
</svg>
