<svg width="24" height="24" viewBox="0 0 24 24" fill="none" xmlns="http://www.w3.org/2000/svg">
<g clip-path="url(#clip0)">
<path d="M23.9943 24.0006V23.9996H24.0003V15.1976C24.0003 10.8916 23.0733 7.57458 18.0393 7.57458C15.6193 7.57458 13.9953 8.90259 13.3323 10.1616H13.2623V7.97658H8.48926V23.9996H13.4593V16.0656C13.4593 13.9766 13.8553 11.9566 16.4423 11.9566C18.9913 11.9566 19.0293 14.3406 19.0293 16.1996V24.0006H23.9943Z" fill="#0072B1"/>
<path d="M0.395996 7.97681H5.372V23.9998H0.395996V7.97681Z" fill="#0072B1"/>
<path d="M2.882 0C1.291 0 0 1.291 0 2.882C0 4.473 1.291 5.791 2.882 5.791C4.473 5.791 5.764 4.473 5.764 2.882C5.763 1.291 4.472 0 2.882 0V0Z" fill="#0072B1"/>
</g>
<defs>
<clipPath id="clip0">
<rect width="24" height="24" fill="white"/>
</clipPath>
</defs>
</svg>
